<svg xmlns="http://www.w3.org/2000/svg" version="1.1" height="576" width="616" viewBox="0 0 616 576" class="diagram" text-anchor="middle" font-family="monospace" font-size="13px">
<path d="M 8,80 L 8,144" fill="none" stroke="black"/>
<path d="M 8,208 L 8,272" fill="none" stroke="black"/>
<path d="M 8,336 L 8,400" fill="none" stroke="black"/>
<path d="M 8,464 L 8,560" fill="none" stroke="black"/>
<path d="M 80,176 L 80,208" fill="none" stroke="black"/>
<path d="M 88,272 L 88,328" fill="none" stroke="black"/>
<path d="M 96,400 L 96,456" fill="none" stroke="black"/>
<path d="M 152,208 L 152,272" fill="none" stroke="black"/>
<path d="M 160,144 L 160,176" fill="none" stroke="black"/>
<path d="M 168,16 L 168,72" fill="none" stroke="black"/>
<path d="M 176,208 L 176,272" fill="none" stroke="black"/>
<path d="M 184,336 L 184,400" fill="none" stroke="black"/>
<path d="M 184,464 L 184,560" fill="none" stroke="black"/>
<path d="M 232,280 L 232,496" fill="none" stroke="black"/>
<path d="M 272,176 L 272,208" fill="none" stroke="black"/>
<path d="M 288,80 L 288,144" fill="none" stroke="black"/>
<path d="M 288,336 L 288,400" fill="none" stroke="black"/>
<path d="M 336,272 L 336,328" fill="none" stroke="black"/>
<path d="M 360,80 L 360,144" fill="none" stroke="black"/>
<path d="M 376,208 L 376,272" fill="none" stroke="black"/>
<path d="M 416,336 L 416,400" fill="none" stroke="black"/>
<path d="M 440,208 L 440,272" fill="none" stroke="black"/>
<path d="M 464,152 L 464,208" fill="none" stroke="black"/>
<path d="M 504,16 L 504,80" fill="none" stroke="black"/>
<path d="M 504,272 L 504,368" fill="none" stroke="black"/>
<path d="M 552,208 L 552,272" fill="none" stroke="black"/>
<path d="M 592,152 L 592,544" fill="none" stroke="black"/>
<path d="M 608,80 L 608,144" fill="none" stroke="black"/>
<path d="M 168,16 L 504,16" fill="none" stroke="black"/>
<path d="M 8,80 L 288,80" fill="none" stroke="black"/>
<path d="M 360,80 L 608,80" fill="none" stroke="black"/>
<path d="M 288,112 L 344,112" fill="none" stroke="black"/>
<path d="M 8,144 L 288,144" fill="none" stroke="black"/>
<path d="M 360,144 L 608,144" fill="none" stroke="black"/>
<path d="M 80,176 L 272,176" fill="none" stroke="black"/>
<path d="M 8,208 L 72,208" fill="none" stroke="black"/>
<path d="M 88,208 L 152,208" fill="none" stroke="black"/>
<path d="M 176,208 L 264,208" fill="none" stroke="black"/>
<path d="M 280,208 L 376,208" fill="none" stroke="black"/>
<path d="M 440,208 L 552,208" fill="none" stroke="black"/>
<path d="M 376,240 L 432,240" fill="none" stroke="black"/>
<path d="M 8,272 L 152,272" fill="none" stroke="black"/>
<path d="M 176,272 L 376,272" fill="none" stroke="black"/>
<path d="M 440,272 L 552,272" fill="none" stroke="black"/>
<path d="M 8,336 L 184,336" fill="none" stroke="black"/>
<path d="M 288,336 L 416,336" fill="none" stroke="black"/>
<path d="M 192,368 L 288,368" fill="none" stroke="black"/>
<path d="M 424,368 L 504,368" fill="none" stroke="black"/>
<path d="M 8,400 L 184,400" fill="none" stroke="black"/>
<path d="M 288,400 L 416,400" fill="none" stroke="black"/>
<path d="M 8,464 L 184,464" fill="none" stroke="black"/>
<path d="M 184,496 L 232,496" fill="none" stroke="black"/>
<path d="M 184,544 L 592,544" fill="none" stroke="black"/>
<path d="M 8,560 L 184,560" fill="none" stroke="black"/>
<polygon class="arrowhead" points="600,152 588,146.4 588,157.6" fill="black" transform="rotate(270,592,152)"/>
<polygon class="arrowhead" points="472,152 460,146.4 460,157.6" fill="black" transform="rotate(270,464,152)"/>
<polygon class="arrowhead" points="440,240 428,234.4 428,245.6" fill="black" transform="rotate(0,432,240)"/>
<polygon class="arrowhead" points="432,368 420,362.4 420,373.6" fill="black" transform="rotate(180,424,368)"/>
<polygon class="arrowhead" points="352,112 340,106.4 340,117.6" fill="black" transform="rotate(0,344,112)"/>
<polygon class="arrowhead" points="344,328 332,322.4 332,333.6" fill="black" transform="rotate(90,336,328)"/>
<polygon class="arrowhead" points="280,208 268,202.4 268,213.6" fill="black" transform="rotate(90,272,208)"/>
<polygon class="arrowhead" points="240,280 228,274.4 228,285.6" fill="black" transform="rotate(270,232,280)"/>
<polygon class="arrowhead" points="200,368 188,362.4 188,373.6" fill="black" transform="rotate(180,192,368)"/>
<polygon class="arrowhead" points="176,72 164,66.4 164,77.6" fill="black" transform="rotate(90,168,72)"/>
<polygon class="arrowhead" points="104,456 92,450.4 92,461.6" fill="black" transform="rotate(90,96,456)"/>
<polygon class="arrowhead" points="96,328 84,322.4 84,333.6" fill="black" transform="rotate(90,88,328)"/>
<polygon class="arrowhead" points="88,208 76,202.4 76,213.6" fill="black" transform="rotate(90,80,208)"/>
<g class="text">
<text x="312" y="100">YES</text>
<text x="148" y="116">Has non-link-local IPv4 address?</text>
<text x="480" y="116">CLAT Disabled</text>
<text x="188" y="164">NO</text>
<text x="484" y="180">NO</text>
<text x="404" y="228">NO</text>
<text x="496" y="228">PLAT prefix</text>
<text x="76" y="244">Start DHCP</text>
<text x="276" y="244">Received PREF64 in RA?</text>
<text x="492" y="244">discovered</text>
<text x="500" y="260">via RFC7050?</text>
<text x="360" y="308">YES</text>
<text x="528" y="324">YES</text>
<text x="96" y="372">Wait for DHCP Offer</text>
<text x="344" y="372">Enable CLAT</text>
<text x="256" y="452">YES</text>
<text x="96" y="516">Option 108 Present?</text>
<text x="428" y="532">NO</text>
</g>
</svg>
