<svg xmlns="http://www.w3.org/2000/svg" version="1.1" height="512" width="616" viewBox="0 0 616 512" class="diagram" text-anchor="middle" font-family="monospace" font-size="13px">
<path d="M 8,16 L 8,80" fill="none" stroke="black"/>
<path d="M 8,144 L 8,208" fill="none" stroke="black"/>
<path d="M 8,272 L 8,336" fill="none" stroke="black"/>
<path d="M 8,400 L 8,496" fill="none" stroke="black"/>
<path d="M 80,112 L 80,144" fill="none" stroke="black"/>
<path d="M 88,208 L 88,264" fill="none" stroke="black"/>
<path d="M 96,336 L 96,392" fill="none" stroke="black"/>
<path d="M 152,144 L 152,208" fill="none" stroke="black"/>
<path d="M 160,80 L 160,112" fill="none" stroke="black"/>
<path d="M 176,144 L 176,208" fill="none" stroke="black"/>
<path d="M 184,272 L 184,336" fill="none" stroke="black"/>
<path d="M 184,400 L 184,496" fill="none" stroke="black"/>
<path d="M 272,112 L 272,144" fill="none" stroke="black"/>
<path d="M 288,16 L 288,80" fill="none" stroke="black"/>
<path d="M 288,272 L 288,336" fill="none" stroke="black"/>
<path d="M 336,208 L 336,264" fill="none" stroke="black"/>
<path d="M 344,344 L 344,432" fill="none" stroke="black"/>
<path d="M 360,16 L 360,80" fill="none" stroke="black"/>
<path d="M 376,144 L 376,208" fill="none" stroke="black"/>
<path d="M 416,272 L 416,336" fill="none" stroke="black"/>
<path d="M 440,144 L 440,208" fill="none" stroke="black"/>
<path d="M 464,88 L 464,144" fill="none" stroke="black"/>
<path d="M 504,208 L 504,304" fill="none" stroke="black"/>
<path d="M 552,144 L 552,208" fill="none" stroke="black"/>
<path d="M 592,88 L 592,480" fill="none" stroke="black"/>
<path d="M 608,16 L 608,80" fill="none" stroke="black"/>
<path d="M 8,16 L 288,16" fill="none" stroke="black"/>
<path d="M 360,16 L 608,16" fill="none" stroke="black"/>
<path d="M 288,48 L 344,48" fill="none" stroke="black"/>
<path d="M 8,80 L 288,80" fill="none" stroke="black"/>
<path d="M 360,80 L 608,80" fill="none" stroke="black"/>
<path d="M 80,112 L 272,112" fill="none" stroke="black"/>
<path d="M 8,144 L 72,144" fill="none" stroke="black"/>
<path d="M 88,144 L 152,144" fill="none" stroke="black"/>
<path d="M 176,144 L 264,144" fill="none" stroke="black"/>
<path d="M 280,144 L 376,144" fill="none" stroke="black"/>
<path d="M 440,144 L 552,144" fill="none" stroke="black"/>
<path d="M 376,176 L 432,176" fill="none" stroke="black"/>
<path d="M 8,208 L 152,208" fill="none" stroke="black"/>
<path d="M 176,208 L 376,208" fill="none" stroke="black"/>
<path d="M 440,208 L 552,208" fill="none" stroke="black"/>
<path d="M 8,272 L 184,272" fill="none" stroke="black"/>
<path d="M 288,272 L 416,272" fill="none" stroke="black"/>
<path d="M 192,304 L 288,304" fill="none" stroke="black"/>
<path d="M 424,304 L 504,304" fill="none" stroke="black"/>
<path d="M 8,336 L 184,336" fill="none" stroke="black"/>
<path d="M 288,336 L 416,336" fill="none" stroke="black"/>
<path d="M 8,400 L 184,400" fill="none" stroke="black"/>
<path d="M 184,432 L 344,432" fill="none" stroke="black"/>
<path d="M 184,480 L 592,480" fill="none" stroke="black"/>
<path d="M 8,496 L 184,496" fill="none" stroke="black"/>
<polygon class="arrowhead" points="600,88 588,82.4 588,93.6" fill="black" transform="rotate(270,592,88)"/>
<polygon class="arrowhead" points="472,88 460,82.4 460,93.6" fill="black" transform="rotate(270,464,88)"/>
<polygon class="arrowhead" points="440,176 428,170.4 428,181.6" fill="black" transform="rotate(0,432,176)"/>
<polygon class="arrowhead" points="432,304 420,298.4 420,309.6" fill="black" transform="rotate(180,424,304)"/>
<polygon class="arrowhead" points="352,344 340,338.4 340,349.6" fill="black" transform="rotate(270,344,344)"/>
<polygon class="arrowhead" points="352,48 340,42.4 340,53.6" fill="black" transform="rotate(0,344,48)"/>
<polygon class="arrowhead" points="344,264 332,258.4 332,269.6" fill="black" transform="rotate(90,336,264)"/>
<polygon class="arrowhead" points="280,144 268,138.4 268,149.6" fill="black" transform="rotate(90,272,144)"/>
<polygon class="arrowhead" points="200,304 188,298.4 188,309.6" fill="black" transform="rotate(180,192,304)"/>
<polygon class="arrowhead" points="104,392 92,386.4 92,397.6" fill="black" transform="rotate(90,96,392)"/>
<polygon class="arrowhead" points="96,264 84,258.4 84,269.6" fill="black" transform="rotate(90,88,264)"/>
<polygon class="arrowhead" points="88,144 76,138.4 76,149.6" fill="black" transform="rotate(90,80,144)"/>
<g class="text">
<text x="312" y="36">YES</text>
<text x="148" y="52">Has non-link-local IPv4 address?</text>
<text x="480" y="52">CLAT Disabled</text>
<text x="188" y="100">NO</text>
<text x="484" y="116">NO</text>
<text x="404" y="164">NO</text>
<text x="496" y="164">PLAT prefix</text>
<text x="76" y="180">Start DHCP</text>
<text x="276" y="180">Received PREF64 in RA?</text>
<text x="492" y="180">discovered</text>
<text x="500" y="196">via RFC7050?</text>
<text x="360" y="244">YES</text>
<text x="528" y="260">YES</text>
<text x="96" y="308">Wait for DHCP Offer</text>
<text x="344" y="308">Enable CLAT</text>
<text x="256" y="420">YES</text>
<text x="96" y="452">Option 108 Present?</text>
<text x="428" y="468">NO</text>
</g>
</svg>
